<svg width="51" height="51" viewBox="0 0 51 51" fill="none" xmlns="http://www.w3.org/2000/svg">
<g filter="url(#filter0_i_244_1494)">
<path d="M26.3461 4.16506C25.4081 2.07592 27.2041 -0.163505 29.414 0.226625C41.2163 2.31 50.182 12.6112 50.182 25.0123C50.182 38.913 38.913 50.182 25.0123 50.182C12.6112 50.182 2.31 41.2163 0.226628 29.414C-0.16353 27.2038 2.07609 25.4083 4.16506 26.3461C6.2568 27.2852 8.578 27.809 11.0291 27.809C20.2964 27.809 27.809 20.2964 27.809 11.0291C27.809 8.578 27.2852 6.2568 26.3461 4.16506Z" fill="url(#paint0_linear_244_1494)"/>
</g>
<defs>
<filter id="filter0_i_244_1494" x="0.182007" y="0.182007" width="54.1949" height="54.1949" filterUnits="userSpaceOnUse" color-interpolation-filters="sRGB">
<feFlood flood-opacity="0" result="BackgroundImageFix"/>
<feBlend mode="normal" in="SourceGraphic" in2="BackgroundImageFix" result="shape"/>
<feColorMatrix in="SourceAlpha" type="matrix" values="0 0 0 0 0 0 0 0 0 0 0 0 0 0 0 0 0 0 127 0" result="hardAlpha"/>
<feOffset dx="4.19494" dy="4.19494"/>
<feGaussianBlur stdDeviation="4.19494"/>
<feComposite in2="hardAlpha" operator="arithmetic" k2="-1" k3="1"/>
<feColorMatrix type="matrix" values="0 0 0 0 0.650967 0 0 0 0 0.522083 0 0 0 0 0.86125 0 0 0 0.7 0"/>
<feBlend mode="normal" in2="shape" result="effect1_innerShadow_244_1494"/>
</filter>
<linearGradient id="paint0_linear_244_1494" x1="25.182" y1="0.182007" x2="25.182" y2="50.182" gradientUnits="userSpaceOnUse">
<stop stop-color="#A3A9DF"/>
<stop offset="0.853177" stop-color="#1F2FBC"/>
</linearGradient>
</defs>
</svg>
